<?xml version="1.0" encoding="utf-8"?>
<!-- Generator: Adobe Illustrator 24.0.0, SVG Export Plug-In . SVG Version: 6.00 Build 0)  -->
<svg version="1.1" id="Layer_1" xmlns="http://www.w3.org/2000/svg" xmlns:xlink="http://www.w3.org/1999/xlink" x="0px" y="0px"
	 viewBox="0 0 414.4 91.13" style="enable-background:new 0 0 414.4 91.13;" xml:space="preserve">
<style type="text/css">
	.st0{fill:#6aa510;}
</style>
<g>
	<g>
		<g>
			<path class="st0" d="M283.66,0.15c-0.39-0.25-0.79-0.19-1.2,0.19c-0.13,0.1-0.56,1.13-1.31,3.05c-0.73,1.94-1.63,4.42-2.72,7.45
				c-1.12,3.03-2.33,6.42-3.63,10.18c-1.31,3.75-2.59,7.49-3.83,11.22c-0.22,0.64-0.67,0.95-1.35,0.91
				c-0.94-0.05-2.4-0.09-4.37-0.14c-0.8,0-1.61,0-2.45-0.01C261.96,33,261.13,33,260.27,33c-0.75,0-1.03-0.32-0.86-0.95
				c1.82-6.55,3.42-12.41,4.81-17.6c0.64-2.42,1.15-4.43,1.54-6.02c0.4-1.59,0.62-2.56,0.66-2.92c0.2-2.19-0.25-2.75-1.34-1.7
				c-0.14,0.1-0.53,0.98-1.18,2.61c-0.65,1.65-1.46,3.79-2.45,6.43c-1.01,2.66-2.13,5.66-3.34,8.99c-1.22,3.35-2.46,6.78-3.7,10.32
				c-0.25,0.63-0.74,0.96-1.48,0.98c-4.13,0.15-7.69,0.36-10.68,0.65c-3.18,0.34-5.34,0.77-6.48,1.26
				c-0.61,0.33-0.45,0.94,0.49,1.84c1.05,0.97,2.32,1.49,3.79,1.58c0.15,0.02,1.36-0.05,3.66-0.19c0.99-0.07,2.14-0.14,3.46-0.2
				c1.32-0.08,2.73-0.17,4.25-0.3c0.68-0.03,0.89,0.28,0.66,0.98c-0.96,2.77-1.87,5.44-2.72,8c-0.85,2.55-1.59,4.85-2.22,6.89
				c-1.39,4.51-2.06,7.22-2.01,8.15c0,0.44,0.22,0.96,0.66,1.54c0.44,0.59,0.93,1.13,1.48,1.61c1.42,1.19,2.3,1.46,2.63,0.82
				c0.02-0.07,0.26-0.88,0.71-2.43c0.45-1.56,1.03-3.61,1.76-6.15c0.73-2.52,1.54-5.42,2.46-8.69c0.91-3.27,1.86-6.66,2.85-10.18
				c0.18-0.65,0.59-1.01,1.25-1.07c0.79-0.07,1.59-0.12,2.39-0.18c0.8-0.05,1.6-0.11,2.39-0.17c0.79-0.05,1.56-0.09,2.3-0.15
				c0.74-0.05,1.48-0.1,2.21-0.17c0.89-0.07,1.22,0.27,0.99,1c-1.61,4.87-2.82,8.76-3.66,11.67c-0.25,0.82-0.46,1.57-0.65,2.24
				c-0.19,0.68-0.33,1.27-0.45,1.8c-0.26,1.03-0.39,1.77-0.39,2.21c0.02,0.83,0.6,1.8,1.74,2.9c1.12,1.12,1.83,1.36,2.14,0.76
				c0.09-0.27,0.76-2.51,2.01-6.72c0.59-2.02,1.27-4.36,2.05-7.02c0.76-2.66,1.58-5.48,2.43-8.44c0.13-0.54,0.45-0.85,0.95-0.91
				c1.19-0.06,1.88-0.09,2.1-0.09c1.01,0.1,1.33-0.11,0.98-0.65c-0.36-0.53-1.18-1.01-2.42-1.43c-0.46-0.12-0.61-0.45-0.46-0.98
				c1.02-3.57,2.05-7.13,3.05-10.68c1-3.54,1.91-6.76,2.72-9.67c0.79-2.87,1.43-5.29,1.94-7.22c0.51-1.93,0.79-3.09,0.86-3.47
				C284.2,0.98,284.05,0.41,283.66,0.15z"/>
			<path class="st0" d="M306.67,29.78c-1.56,0.92-3.14,1.8-4.74,2.61c-0.29,0.17-0.4,0.1-0.33-0.21c0.15-1.53,0.12-2.85-0.11-3.94
				c-0.22-1.05-0.61-1.81-1.19-2.3c-0.21-0.15-0.46-0.25-0.72-0.29c-0.13,0-0.26-0.28-0.36-0.85c-0.64-2.38-2.32-3.22-5.03-2.52
				c-2.73,0.71-5.32,2.64-7.77,5.77c-2.07,2.65-3.5,5.34-4.33,8.08c-0.82,2.73-1.14,5.21-0.94,7.41c0.2,2.21,0.86,4,1.98,5.38
				c1.12,1.37,2.6,2.04,4.45,1.97c1.93-0.07,3.66-0.63,5.19-1.7c1.52-1.07,2.85-2.38,3.96-3.91c1.12-1.52,2.03-3.13,2.74-4.86
				c0.69-1.72,1.21-3.27,1.54-4.61c0.09-0.29,0.27-0.51,0.53-0.63c1.6-0.89,3.02-1.86,4.28-2.93c1.16-0.96,1.74-1.6,1.74-1.96
				C307.52,29.63,307.21,29.46,306.67,29.78z M298.15,37.1c-0.86,3.45-2.19,6.1-3.99,7.94c-1.62,1.72-3.26,2.47-4.9,2.21
				c-1.65-0.27-2.72-1.49-3.2-3.65c-0.53-2.49-0.14-5.7,1.15-9.63c0.66-1.99,1.56-3.79,2.73-5.38c1.16-1.59,2.3-2.82,3.43-3.71
				c1.09-0.88,2.03-1.31,2.82-1.3c0.8,0.02,1.15,0.64,1.09,1.87c0,0.33-0.15,0.55-0.46,0.65c-2,0.87-3.55,2.11-4.64,3.73
				c-1.27,1.94-1.34,3.66-0.2,5.21c0.61,0.86,1.47,1.43,2.56,1.7c0.91,0.21,2,0.17,3.29-0.12C298.13,36.56,298.23,36.72,298.15,37.1
				z M298.86,32.62c0,0.17-0.02,0.42-0.06,0.74c-0.05,0.33-0.16,0.52-0.33,0.59c-3.52,1.32-5.14,1.13-4.88-0.61
				c0.25-1.66,1.52-3.1,3.82-4.32c0.53-0.27,0.93-0.07,1.22,0.63C298.88,30.38,298.96,31.38,298.86,32.62z"/>
			<path class="st0" d="M341.69,32.21c-0.25-0.29-0.51-0.29-0.76,0.03c-0.53,0.71-1.31,1.86-2.33,3.45
				c-1.02,1.59-2.49,3.67-4.42,6.27c-0.8,1.01-1.47,1.81-2.01,2.41c-0.55,0.6-0.83,0.77-0.86,0.48c-0.07-0.75-0.01-1.76,0.16-3.02
				c0.18-1.26,0.41-2.57,0.73-3.91c0.28-1.33,0.58-2.57,0.88-3.73c0.31-1.15,0.53-2.01,0.66-2.56c0.2-0.76-0.14-1.58-1.02-2.47
				c-0.87-0.9-1.74-1.3-2.6-1.18c-0.35,0.08-1.2,1-2.56,2.77c-1.34,1.7-2.8,3.78-4.39,6.21c-0.41,0.65-0.71,0.97-0.87,0.96
				c-0.16-0.02-0.12-0.42,0.12-1.17c0.4-1.22,0.78-2.38,1.15-3.47c0.38-1.09,0.73-2.02,1.06-2.77c0.28-0.74-0.08-1.7-1.09-2.87
				c-1.01-1.18-1.93-1.7-2.76-1.54c-0.39,0.08-1.38,1.13-2.96,3.12c-1.62,1.99-3.34,4.35-5.14,7.07c-0.19,0.32-0.36,0.44-0.51,0.36
				c-0.14-0.07-0.15-0.29-0.01-0.64c0.44-1.33,0.86-2.58,1.28-3.78c0.41-1.18,0.82-2.2,1.21-3.01c0.35-0.82,0.08-1.8-0.82-2.94
				c-0.94-1.13-1.55-1.4-1.83-0.79c-0.6,1.33-1.35,3.01-2.28,5.05c-0.92,2.04-1.81,4.1-2.66,6.19c-0.88,2.08-1.65,4.02-2.29,5.84
				c-0.65,1.8-0.99,3.13-1.03,3.98c-0.09,1.14,0.45,2.15,1.61,3.05c1.16,0.91,1.87,1.08,2.1,0.51c0.62-1.45,1.16-2.83,1.63-4.14
				c0.47-1.3,1.15-2.64,2.06-4c1.32-2.02,2.74-4.08,4.28-6.16c1.53-2.1,2.93-3.88,4.17-5.35c0.2-0.24,0.39-0.33,0.54-0.3
				c0.18,0.03,0.19,0.21,0.06,0.55c-0.62,1.45-1.27,3-1.94,4.64c-0.68,1.63-1.32,3.22-1.88,4.73c-0.59,1.53-1.08,2.93-1.47,4.18
				c-0.38,1.25-0.58,2.2-0.58,2.85c-0.04,1.07,0.53,2.04,1.71,2.91c1.16,0.86,1.89,1.03,2.19,0.5c0.11-0.2,0.24-0.55,0.38-1.04
				c0.14-0.48,0.34-1.07,0.61-1.77c0.41-1.14,1.05-2.4,1.91-3.81c0.86-1.41,1.78-2.84,2.76-4.29c2.05-3.03,3.97-5.63,5.8-7.83
				c0.35-0.42,0.61-0.57,0.79-0.48c0.18,0.1,0.15,0.38-0.06,0.87c-0.47,0.95-0.93,2.01-1.4,3.17c-0.48,1.17-0.89,2.36-1.27,3.55
				c-0.4,1.23-0.71,2.42-0.94,3.61c-0.22,1.17-0.28,2.23-0.15,3.16c0.14,1.53,0.64,2.78,1.51,3.75c0.87,0.97,1.58,1.23,2.12,0.79
				c0.62-0.48,1.27-1.16,1.95-2.02c0.67-0.87,1.51-2.03,2.49-3.48c1.92-2.79,3.33-5.03,4.23-6.69c0.92-1.68,1.63-2.92,2.16-3.74
				C341.75,33.18,341.95,32.5,341.69,32.21z"/>
			<path class="st0" d="M361.34,33.31c-0.18-0.38-0.41-0.36-0.72,0.06c-0.78,1.25-1.69,2.6-2.75,4.07
				c-1.07,1.48-2.13,2.81-3.18,3.98c-1.23,1.45-2.67,2.86-4.32,4.23c-2.11,1.41-3.68,1.24-4.74-0.5c-0.53-0.82-0.75-1.98-0.66-3.47
				c0-0.34,0.19-0.53,0.56-0.57c1.83-0.29,3.79-1.35,5.82-3.18c2.15-2.03,3.87-4.34,5.14-6.94c0.53-1.06,0.94-2.29,1.25-3.7
				c0.2-2.31-0.78-3.61-2.93-3.88c-2.89-0.33-5.91,1.53-9.05,5.54c-1.29,1.67-2.53,3.71-3.68,6.14c-1.16,2.42-1.82,4.81-1.98,7.14
				c-0.22,2.72,0.07,4.73,0.87,6.06c0.8,1.32,1.88,2.06,3.25,2.23c2.92,0.41,5.96-1.23,9.15-4.89c1.82-2.19,3.29-4.1,4.41-5.76
				c1.12-1.65,2.09-3.16,2.93-4.52C361.27,34.44,361.48,33.75,361.34,33.31z M345.28,38.39c0.27-1.27,0.67-2.59,1.22-3.94
				c0.72-1.83,1.65-3.47,2.78-4.95c1.13-1.48,2.19-2.61,3.18-3.4c0.99-0.79,1.79-1.14,2.4-1.06c0.6,0.07,0.76,0.73,0.51,1.97
				c-0.22,0.9-0.69,1.94-1.4,3.09c-0.72,1.16-1.52,2.3-2.42,3.44c-2.03,2.47-3.81,4.23-5.3,5.31
				C345.4,39.42,345.08,39.28,345.28,38.39z"/>
			<path class="st0" d="M370.53,26.26c1.25-1.23,2.56-2.31,3.97-3.23c0.61-0.36,0.91-0.68,0.88-0.95c-0.11-0.39-0.56-0.56-1.38-0.51
				c-0.73,0.07-1.68,0.32-2.87,0.75c-3.02,1.21-5.49,3.34-7.41,6.41c-1.2,1.97-1.14,4.06,0.2,6.24c0.66,1.09,1.18,1.96,1.56,2.6
				c0.39,0.64,0.66,1.17,0.83,1.6c0.09,0.23,0.04,0.37-0.16,0.43c-2.52,0.63-4.55,1.59-6.09,2.85c-1.53,1.26-2.46,2.61-2.76,4.07
				c-0.31,1.45,0.21,2.6,1.55,3.47c0.99,0.59,2.19,0.83,3.6,0.75c1.42-0.09,2.76-0.54,4.03-1.35c1.54-0.99,2.67-2.24,3.4-3.74
				c0.72-1.51,0.87-3.03,0.46-4.59c-0.05-0.2,0.02-0.34,0.2-0.42c0.39-0.1,0.98-0.19,1.74-0.27c0.76-0.07,1.6-0.16,2.5-0.27
				c0.31-0.1,0.13-0.36-0.51-0.77c-0.66-0.42-2.09-0.53-4.34-0.37c-0.18,0-0.32-0.11-0.42-0.34c-0.42-0.74-0.8-1.49-1.15-2.24
				c-0.35-0.75-0.63-1.52-0.86-2.3c-0.33-1.12-0.16-2.51,0.49-4.2C368.44,28.71,369.29,27.49,370.53,26.26z M365.83,44.64
				c-0.72,0.88-1.55,1.63-2.49,2.24c-0.95,0.56-1.85,0.94-2.69,1.13c-0.85,0.19-1.41,0.08-1.69-0.34c-0.26-0.77,0.11-1.61,1.09-2.56
				c0.99-0.95,2.15-1.71,3.5-2.31c1.34-0.59,2.34-0.95,2.98-1.07c0.28-0.06,0.44,0.03,0.44,0.28
				C366.94,42.88,366.56,43.75,365.83,44.64z"/>
		</g>
		<g>
			<path class="st0" d="M381.88,49.03c0-1.17,0.86-1.94,1.9-1.94c1.04,0,1.9,0.77,1.9,1.94c0,1.12-0.86,1.94-1.9,1.94
				C382.74,50.97,381.88,50.15,381.88,49.03z"/>
			<path class="st0" d="M388.41,44.57c0-3.74,2.78-6.38,6.69-6.38c2.41,0,4.33,1,5.28,2.9l-2.22,1.31
				c-0.74-1.19-1.85-1.73-3.08-1.73c-2.13,0-3.75,1.5-3.75,3.9c0,2.43,1.62,3.9,3.75,3.9c1.23,0,2.34-0.54,3.08-1.73l2.22,1.31
				c-0.95,1.87-2.87,2.92-5.28,2.92C391.19,50.97,388.41,48.31,388.41,44.57z"/>
			<path class="st0" d="M414.4,43.49v7.32h-2.73v-1.52c-0.69,1.08-2.04,1.68-3.89,1.68c-2.83,0-4.61-1.57-4.61-3.74
				c0-2.08,1.39-3.72,5.14-3.72h3.2v-0.19c0-1.71-1.02-2.71-3.08-2.71c-1.39,0-2.83,0.47-3.75,1.24l-1.13-2.13
				c1.32-1.03,3.24-1.54,5.23-1.54C412.34,38.19,414.4,39.9,414.4,43.49z M411.51,46.91v-1.45h-2.99c-1.97,0-2.5,0.75-2.5,1.66
				c0,1.05,0.88,1.73,2.36,1.73C409.79,48.85,411.02,48.19,411.51,46.91z"/>
		</g>
		<g>
			<path d="M32.51,18.95l-13.75,32.1h-4.43l-13.8-32.1h4.84l11.29,26.36l11.38-26.36H32.51z"/>
			<path d="M38.72,18.95h4.48v32.1h-4.48V18.95z"/>
			<path d="M77.59,47.06v3.99H54.84v-32.1h22.13v3.99H59.32v9.86h15.72v3.9H59.32v10.36H77.59z"/>
			<path d="M93.3,22.94H82.55v-3.99h25.94v3.99H97.74v28.11H93.3V22.94z"/>
			<path d="M142.56,18.95v32.1h-3.67l-18.81-23.94v23.94h-4.48v-32.1h3.67l18.81,23.93V18.95H142.56z"/>
			<path d="M174.17,43.03h-16.66l-3.45,8.02h-4.61l14.2-32.1h4.43l14.25,32.1h-4.7L174.17,43.03z M172.61,39.36l-6.76-15.73
				l-6.76,15.73H172.61z"/>
			<path d="M218.28,51.05l-0.05-23.38L206.9,47.15h-2.06L193.51,27.8v23.25h-4.3v-32.1h3.67l13.08,22.56l12.9-22.56h3.67l0.05,32.1
				H218.28z"/>
		</g>
	</g>
	<g>
		<g>
			<path d="M3.17,75.72h1.1v14.29H13v1.01H3.17V75.72z"/>
			<path d="M24.06,84.53v-8.81h1.1v8.76c0,3.82,1.82,5.62,4.98,5.62c3.16,0,4.96-1.79,4.96-5.62v-8.76h1.1v8.81
				c0,4.37-2.32,6.6-6.09,6.6C26.36,91.13,24.06,88.9,24.06,84.53z"/>
			<path d="M59.32,91.02l-5.22-7.08l-5.2,7.08h-1.3l5.83-7.89l-5.41-7.41h1.3l4.83,6.58l4.83-6.58h1.23l-5.41,7.39
				l5.83,7.91H59.32z"/>
			<path d="M72.03,84.53v-8.81h1.1v8.76c0,3.82,1.82,5.62,4.98,5.62c3.16,0,4.96-1.79,4.96-5.62v-8.76h1.1v8.81
				c0,4.37-2.32,6.6-6.09,6.6C74.33,91.13,72.03,88.9,72.03,84.53z"/>
			<path d="M108.52,91.02l-3.62-5.11c-0.48,0.06-0.95,0.11-1.47,0.11H99.1v5H98v-15.3h5.44c3.81,0,6.11,1.92,6.11,5.16
				c0,2.43-1.3,4.11-3.55,4.79l3.79,5.35H108.52z M103.43,85.03c3.25,0,4.98-1.53,4.98-4.15c0-2.64-1.73-4.15-4.98-4.15H99.1v8.31
				H103.43z"/>
			<path d="M126.71,85.75v5.27h-1.1v-5.27l-6.11-10.03h1.21l5.48,9l5.48-9h1.15L126.71,85.75z"/>
			<path d="M170.8,86.98c0,2.58-1.86,4.04-5.59,4.04h-6.76v-15.3h6.32c3.25,0,5.22,1.38,5.22,3.91
				c0,1.81-1.02,2.99-2.53,3.5C169.61,83.55,170.8,84.86,170.8,86.98z M159.56,76.68v6.1h5.18c2.62,0,4.14-1.03,4.14-3.06
				c0-2.01-1.52-3.04-4.14-3.04H159.56z M169.7,86.89c0-2.19-1.58-3.15-4.48-3.15h-5.65v6.32h5.65
				C168.12,90.06,169.7,89.1,169.7,86.89z"/>
			<path d="M193.93,91.02l-3.62-5.11c-0.48,0.06-0.95,0.11-1.47,0.11h-4.33v5h-1.1v-15.3h5.44
				c3.81,0,6.11,1.92,6.11,5.16c0,2.43-1.3,4.11-3.55,4.79l3.79,5.35H193.93z M188.84,85.03c3.25,0,4.98-1.53,4.98-4.15
				c0-2.64-1.73-4.15-4.98-4.15h-4.33v8.31H188.84z"/>
			<path d="M206.21,83.37c0-4.44,3.36-7.76,7.88-7.76c4.51,0,7.88,3.3,7.88,7.76c0,4.46-3.38,7.76-7.88,7.76
				C209.57,91.13,206.21,87.81,206.21,83.37z M220.85,83.37c0-3.87-2.9-6.73-6.76-6.73c-3.88,0-6.78,2.86-6.78,6.73
				c0,3.87,2.9,6.73,6.78,6.73C217.95,90.1,220.85,87.24,220.85,83.37z"/>
			<path d="M238.98,83.48l-3.4,3.52v4.02h-1.1v-15.3h1.1v9.83l9.46-9.83h1.34l-6.67,6.95l7.13,8.35h-1.34L238.98,83.48z
				"/>
			<path d="M268.82,90.01v1.01h-10.46v-15.3h10.14v1.01h-9.03v6.03h8.08v0.98h-8.08v6.27H268.82z"/>
			<path d="M292.03,91.02l-3.62-5.11c-0.48,0.06-0.95,0.11-1.47,0.11h-4.33v5h-1.1v-15.3h5.44
				c3.81,0,6.11,1.92,6.11,5.16c0,2.43-1.3,4.11-3.55,4.79l3.79,5.35H292.03z M286.94,85.03c3.25,0,4.98-1.53,4.98-4.15
				c0-2.64-1.73-4.15-4.98-4.15h-4.33v8.31H286.94z"/>
			<path d="M315.14,86.71h-8.79l-1.93,4.31h-1.19l6.97-15.3h1.1l6.97,15.3h-1.19L315.14,86.71z M314.73,85.77
				l-3.99-8.83l-3.96,8.83H314.73z"/>
			<path d="M340.3,83.44h1.06v5.73c-1.36,1.31-3.34,1.97-5.41,1.97c-4.57,0-7.93-3.3-7.93-7.76
				c0-4.46,3.36-7.76,7.95-7.76c2.19,0,4.11,0.7,5.46,2.1l-0.69,0.74c-1.32-1.31-2.9-1.81-4.74-1.81c-3.94,0-6.87,2.88-6.87,6.73
				c0,3.83,2.92,6.73,6.87,6.73c1.6,0,3.08-0.39,4.31-1.4V83.44z"/>
			<path d="M365.34,90.01v1.01h-10.46v-15.3h10.14v1.01h-9.03v6.03h8.08v0.98h-8.08v6.27H365.34z"/>
		</g>
	</g>
</g>
</svg>
